<mxfile host="app.diagrams.net" modified="2023-01-03T05:00:15.827Z" agent="5.0 (Windows NT 10.0; Win64; x64) AppleWebKit/537.36 (KHTML, like Gecko) Chrome/108.0.0.0 Safari/537.36" version="20.8.0" etag="R8l8uYpsTbcZEYZO-YKe" type="github">
  <diagram id="t4ZB66p_OfCtm3vPmpCV" name="페이지-1">
    <mxGraphModel dx="2042" dy="1676" grid="1" gridSize="10" guides="1" tooltips="1" connect="1" arrows="1" fold="1" page="1" pageScale="1" pageWidth="2000" pageHeight="2000" math="0" shadow="0">
      <root>
        <mxCell id="0" />
        <mxCell id="1" parent="0" />
        <mxCell id="12c1S3n-bGrvphXizV_3-1" style="edgeStyle=none;rounded=0;orthogonalLoop=1;jettySize=auto;html=1;entryX=0;entryY=0.5;entryDx=0;entryDy=0;" edge="1" parent="1" source="12c1S3n-bGrvphXizV_3-10" target="12c1S3n-bGrvphXizV_3-12">
          <mxGeometry relative="1" as="geometry" />
        </mxCell>
        <mxCell id="12c1S3n-bGrvphXizV_3-2" style="edgeStyle=none;rounded=0;orthogonalLoop=1;jettySize=auto;html=1;entryX=0;entryY=0.5;entryDx=0;entryDy=0;" edge="1" parent="1" source="12c1S3n-bGrvphXizV_3-10" target="12c1S3n-bGrvphXizV_3-28">
          <mxGeometry relative="1" as="geometry" />
        </mxCell>
        <mxCell id="12c1S3n-bGrvphXizV_3-3" style="edgeStyle=none;rounded=0;orthogonalLoop=1;jettySize=auto;html=1;entryX=0;entryY=0.5;entryDx=0;entryDy=0;" edge="1" parent="1" source="12c1S3n-bGrvphXizV_3-10" target="12c1S3n-bGrvphXizV_3-27">
          <mxGeometry relative="1" as="geometry" />
        </mxCell>
        <mxCell id="12c1S3n-bGrvphXizV_3-4" style="edgeStyle=none;rounded=0;orthogonalLoop=1;jettySize=auto;html=1;entryX=0;entryY=0.5;entryDx=0;entryDy=0;" edge="1" parent="1" source="12c1S3n-bGrvphXizV_3-10" target="12c1S3n-bGrvphXizV_3-11">
          <mxGeometry relative="1" as="geometry" />
        </mxCell>
        <mxCell id="12c1S3n-bGrvphXizV_3-5" style="edgeStyle=none;rounded=0;orthogonalLoop=1;jettySize=auto;html=1;entryX=0;entryY=0;entryDx=0;entryDy=0;" edge="1" parent="1" source="12c1S3n-bGrvphXizV_3-10" target="12c1S3n-bGrvphXizV_3-26">
          <mxGeometry relative="1" as="geometry" />
        </mxCell>
        <mxCell id="12c1S3n-bGrvphXizV_3-6" style="edgeStyle=none;rounded=0;orthogonalLoop=1;jettySize=auto;html=1;entryX=0;entryY=0.5;entryDx=0;entryDy=0;" edge="1" parent="1" source="12c1S3n-bGrvphXizV_3-10" target="12c1S3n-bGrvphXizV_3-64">
          <mxGeometry relative="1" as="geometry" />
        </mxCell>
        <mxCell id="12c1S3n-bGrvphXizV_3-7" style="edgeStyle=none;rounded=0;orthogonalLoop=1;jettySize=auto;html=1;entryX=0;entryY=0.5;entryDx=0;entryDy=0;" edge="1" parent="1" source="12c1S3n-bGrvphXizV_3-10" target="12c1S3n-bGrvphXizV_3-43">
          <mxGeometry relative="1" as="geometry" />
        </mxCell>
        <mxCell id="12c1S3n-bGrvphXizV_3-8" style="edgeStyle=none;rounded=0;orthogonalLoop=1;jettySize=auto;html=1;entryX=0;entryY=0.5;entryDx=0;entryDy=0;" edge="1" parent="1" source="12c1S3n-bGrvphXizV_3-10" target="12c1S3n-bGrvphXizV_3-68">
          <mxGeometry relative="1" as="geometry" />
        </mxCell>
        <mxCell id="12c1S3n-bGrvphXizV_3-9" style="edgeStyle=none;rounded=0;orthogonalLoop=1;jettySize=auto;html=1;entryX=0;entryY=0;entryDx=0;entryDy=0;" edge="1" parent="1" source="12c1S3n-bGrvphXizV_3-10" target="12c1S3n-bGrvphXizV_3-70">
          <mxGeometry relative="1" as="geometry" />
        </mxCell>
        <mxCell id="12c1S3n-bGrvphXizV_3-10" value="고객" style="shape=umlActor;verticalLabelPosition=bottom;verticalAlign=top;html=1;outlineConnect=0;" vertex="1" parent="1">
          <mxGeometry x="190" y="570" width="30" height="60" as="geometry" />
        </mxCell>
        <mxCell id="12c1S3n-bGrvphXizV_3-11" value="로그인" style="ellipse;whiteSpace=wrap;html=1;" vertex="1" parent="1">
          <mxGeometry x="540" y="150" width="120" height="80" as="geometry" />
        </mxCell>
        <mxCell id="12c1S3n-bGrvphXizV_3-12" value="마이페이지" style="ellipse;whiteSpace=wrap;html=1;" vertex="1" parent="1">
          <mxGeometry x="700" y="470" width="120" height="80" as="geometry" />
        </mxCell>
        <mxCell id="12c1S3n-bGrvphXizV_3-13" style="edgeStyle=none;rounded=0;orthogonalLoop=1;jettySize=auto;html=1;entryX=1;entryY=0;entryDx=0;entryDy=0;dashed=1;" edge="1" parent="1" source="12c1S3n-bGrvphXizV_3-15" target="12c1S3n-bGrvphXizV_3-12">
          <mxGeometry relative="1" as="geometry" />
        </mxCell>
        <mxCell id="12c1S3n-bGrvphXizV_3-14" value="&amp;lt;&amp;lt;extend&amp;gt;&amp;gt;" style="edgeLabel;html=1;align=center;verticalAlign=middle;resizable=0;points=[];" vertex="1" connectable="0" parent="12c1S3n-bGrvphXizV_3-13">
          <mxGeometry x="-0.0262" relative="1" as="geometry">
            <mxPoint as="offset" />
          </mxGeometry>
        </mxCell>
        <mxCell id="12c1S3n-bGrvphXizV_3-15" value="회원 정보 수정" style="ellipse;whiteSpace=wrap;html=1;" vertex="1" parent="1">
          <mxGeometry x="910" y="230" width="120" height="80" as="geometry" />
        </mxCell>
        <mxCell id="12c1S3n-bGrvphXizV_3-16" style="edgeStyle=none;rounded=0;orthogonalLoop=1;jettySize=auto;html=1;dashed=1;" edge="1" parent="1" source="12c1S3n-bGrvphXizV_3-18" target="12c1S3n-bGrvphXizV_3-12">
          <mxGeometry relative="1" as="geometry" />
        </mxCell>
        <mxCell id="12c1S3n-bGrvphXizV_3-17" value="&amp;lt;&amp;lt;extend&amp;gt;&amp;gt;" style="edgeLabel;html=1;align=center;verticalAlign=middle;resizable=0;points=[];" vertex="1" connectable="0" parent="12c1S3n-bGrvphXizV_3-16">
          <mxGeometry x="-0.0272" relative="1" as="geometry">
            <mxPoint as="offset" />
          </mxGeometry>
        </mxCell>
        <mxCell id="12c1S3n-bGrvphXizV_3-18" value="회원 탈퇴" style="ellipse;whiteSpace=wrap;html=1;" vertex="1" parent="1">
          <mxGeometry x="940" y="430" width="120" height="80" as="geometry" />
        </mxCell>
        <mxCell id="12c1S3n-bGrvphXizV_3-19" style="edgeStyle=none;rounded=0;orthogonalLoop=1;jettySize=auto;html=1;dashed=1;" edge="1" parent="1" source="12c1S3n-bGrvphXizV_3-21">
          <mxGeometry relative="1" as="geometry">
            <mxPoint x="950" y="940" as="targetPoint" />
          </mxGeometry>
        </mxCell>
        <mxCell id="12c1S3n-bGrvphXizV_3-20" value="&amp;lt;&amp;lt;include&amp;gt;&amp;gt;" style="edgeLabel;html=1;align=center;verticalAlign=middle;resizable=0;points=[];" vertex="1" connectable="0" parent="12c1S3n-bGrvphXizV_3-19">
          <mxGeometry x="-0.1394" y="-1" relative="1" as="geometry">
            <mxPoint as="offset" />
          </mxGeometry>
        </mxCell>
        <mxCell id="12c1S3n-bGrvphXizV_3-21" value="상품 주문" style="ellipse;whiteSpace=wrap;html=1;" vertex="1" parent="1">
          <mxGeometry x="700" y="800" width="120" height="80" as="geometry" />
        </mxCell>
        <mxCell id="12c1S3n-bGrvphXizV_3-22" style="edgeStyle=none;rounded=0;orthogonalLoop=1;jettySize=auto;html=1;entryX=0;entryY=0.5;entryDx=0;entryDy=0;dashed=1;" edge="1" parent="1" source="12c1S3n-bGrvphXizV_3-26" target="12c1S3n-bGrvphXizV_3-21">
          <mxGeometry relative="1" as="geometry" />
        </mxCell>
        <mxCell id="12c1S3n-bGrvphXizV_3-23" value="&amp;lt;&amp;lt;include&amp;gt;&amp;gt;" style="edgeLabel;html=1;align=center;verticalAlign=middle;resizable=0;points=[];" vertex="1" connectable="0" parent="12c1S3n-bGrvphXizV_3-22">
          <mxGeometry x="-0.1588" y="1" relative="1" as="geometry">
            <mxPoint as="offset" />
          </mxGeometry>
        </mxCell>
        <mxCell id="12c1S3n-bGrvphXizV_3-24" style="edgeStyle=none;rounded=0;orthogonalLoop=1;jettySize=auto;html=1;entryX=0;entryY=0;entryDx=0;entryDy=0;dashed=1;" edge="1" parent="1" source="12c1S3n-bGrvphXizV_3-26" target="12c1S3n-bGrvphXizV_3-60">
          <mxGeometry relative="1" as="geometry" />
        </mxCell>
        <mxCell id="12c1S3n-bGrvphXizV_3-25" value="&amp;lt;&amp;lt;include&amp;gt;&amp;gt;" style="edgeLabel;html=1;align=center;verticalAlign=middle;resizable=0;points=[];" vertex="1" connectable="0" parent="12c1S3n-bGrvphXizV_3-24">
          <mxGeometry x="-0.1726" relative="1" as="geometry">
            <mxPoint as="offset" />
          </mxGeometry>
        </mxCell>
        <mxCell id="12c1S3n-bGrvphXizV_3-26" value="상품 조회" style="ellipse;whiteSpace=wrap;html=1;" vertex="1" parent="1">
          <mxGeometry x="510" y="860" width="120" height="80" as="geometry" />
        </mxCell>
        <mxCell id="12c1S3n-bGrvphXizV_3-27" value="회원 가입" style="ellipse;whiteSpace=wrap;html=1;" vertex="1" parent="1">
          <mxGeometry x="540" y="260" width="120" height="80" as="geometry" />
        </mxCell>
        <mxCell id="12c1S3n-bGrvphXizV_3-28" value="메뉴 조회" style="ellipse;whiteSpace=wrap;html=1;" vertex="1" parent="1">
          <mxGeometry x="540" y="660" width="120" height="80" as="geometry" />
        </mxCell>
        <mxCell id="12c1S3n-bGrvphXizV_3-29" style="edgeStyle=none;rounded=0;orthogonalLoop=1;jettySize=auto;html=1;" edge="1" parent="1" source="12c1S3n-bGrvphXizV_3-37" target="12c1S3n-bGrvphXizV_3-12">
          <mxGeometry relative="1" as="geometry" />
        </mxCell>
        <mxCell id="12c1S3n-bGrvphXizV_3-30" style="edgeStyle=none;rounded=0;orthogonalLoop=1;jettySize=auto;html=1;entryX=1;entryY=0;entryDx=0;entryDy=0;" edge="1" parent="1" source="12c1S3n-bGrvphXizV_3-37" target="12c1S3n-bGrvphXizV_3-71">
          <mxGeometry relative="1" as="geometry" />
        </mxCell>
        <mxCell id="12c1S3n-bGrvphXizV_3-31" style="edgeStyle=none;rounded=0;orthogonalLoop=1;jettySize=auto;html=1;entryX=1;entryY=0.5;entryDx=0;entryDy=0;" edge="1" parent="1" source="12c1S3n-bGrvphXizV_3-37" target="12c1S3n-bGrvphXizV_3-81">
          <mxGeometry relative="1" as="geometry" />
        </mxCell>
        <mxCell id="12c1S3n-bGrvphXizV_3-32" style="edgeStyle=none;rounded=0;orthogonalLoop=1;jettySize=auto;html=1;entryX=1;entryY=0.5;entryDx=0;entryDy=0;" edge="1" parent="1" source="12c1S3n-bGrvphXizV_3-37" target="12c1S3n-bGrvphXizV_3-93">
          <mxGeometry relative="1" as="geometry" />
        </mxCell>
        <mxCell id="12c1S3n-bGrvphXizV_3-33" style="edgeStyle=orthogonalEdgeStyle;rounded=0;orthogonalLoop=1;jettySize=auto;html=1;entryX=1;entryY=0.3333333333333333;entryDx=0;entryDy=0;entryPerimeter=0;" edge="1" parent="1" source="12c1S3n-bGrvphXizV_3-37" target="12c1S3n-bGrvphXizV_3-103">
          <mxGeometry relative="1" as="geometry">
            <Array as="points">
              <mxPoint x="1865" y="1450" />
            </Array>
          </mxGeometry>
        </mxCell>
        <mxCell id="12c1S3n-bGrvphXizV_3-34" style="edgeStyle=none;rounded=0;orthogonalLoop=1;jettySize=auto;html=1;entryX=1;entryY=0;entryDx=0;entryDy=0;" edge="1" parent="1" source="12c1S3n-bGrvphXizV_3-37" target="12c1S3n-bGrvphXizV_3-104">
          <mxGeometry relative="1" as="geometry" />
        </mxCell>
        <mxCell id="12c1S3n-bGrvphXizV_3-35" style="edgeStyle=none;rounded=0;orthogonalLoop=1;jettySize=auto;html=1;" edge="1" parent="1" source="12c1S3n-bGrvphXizV_3-37" target="12c1S3n-bGrvphXizV_3-105">
          <mxGeometry relative="1" as="geometry" />
        </mxCell>
        <mxCell id="12c1S3n-bGrvphXizV_3-36" style="edgeStyle=none;rounded=0;orthogonalLoop=1;jettySize=auto;html=1;entryX=1;entryY=1;entryDx=0;entryDy=0;" edge="1" parent="1" source="12c1S3n-bGrvphXizV_3-37" target="12c1S3n-bGrvphXizV_3-124">
          <mxGeometry relative="1" as="geometry" />
        </mxCell>
        <mxCell id="12c1S3n-bGrvphXizV_3-37" value="관리자" style="shape=umlActor;verticalLabelPosition=bottom;verticalAlign=top;html=1;outlineConnect=0;" vertex="1" parent="1">
          <mxGeometry x="1850" y="930" width="30" height="60" as="geometry" />
        </mxCell>
        <mxCell id="12c1S3n-bGrvphXizV_3-38" style="edgeStyle=none;rounded=0;orthogonalLoop=1;jettySize=auto;html=1;entryX=0;entryY=0.3333333333333333;entryDx=0;entryDy=0;entryPerimeter=0;" edge="1" parent="1" source="12c1S3n-bGrvphXizV_3-39" target="12c1S3n-bGrvphXizV_3-41">
          <mxGeometry relative="1" as="geometry" />
        </mxCell>
        <mxCell id="12c1S3n-bGrvphXizV_3-39" value="상품 결제" style="ellipse;whiteSpace=wrap;html=1;" vertex="1" parent="1">
          <mxGeometry x="950" y="900" width="120" height="80" as="geometry" />
        </mxCell>
        <mxCell id="12c1S3n-bGrvphXizV_3-40" style="rounded=0;orthogonalLoop=1;jettySize=auto;html=1;entryX=0;entryY=1;entryDx=0;entryDy=0;entryPerimeter=0;edgeStyle=orthogonalEdgeStyle;" edge="1" parent="1" source="12c1S3n-bGrvphXizV_3-41" target="12c1S3n-bGrvphXizV_3-10">
          <mxGeometry relative="1" as="geometry">
            <Array as="points">
              <mxPoint x="1175" y="1560" />
              <mxPoint x="200" y="1560" />
            </Array>
          </mxGeometry>
        </mxCell>
        <mxCell id="12c1S3n-bGrvphXizV_3-41" value="아임포트 API" style="shape=umlActor;verticalLabelPosition=bottom;verticalAlign=top;html=1;outlineConnect=0;" vertex="1" parent="1">
          <mxGeometry x="1160" y="920" width="30" height="60" as="geometry" />
        </mxCell>
        <mxCell id="12c1S3n-bGrvphXizV_3-42" style="edgeStyle=none;rounded=0;orthogonalLoop=1;jettySize=auto;html=1;exitX=0;exitY=0.3333333333333333;exitDx=0;exitDy=0;exitPerimeter=0;" edge="1" parent="1" source="12c1S3n-bGrvphXizV_3-41" target="12c1S3n-bGrvphXizV_3-41">
          <mxGeometry relative="1" as="geometry" />
        </mxCell>
        <mxCell id="12c1S3n-bGrvphXizV_3-43" value="리뷰 조회" style="ellipse;whiteSpace=wrap;html=1;" vertex="1" parent="1">
          <mxGeometry x="510" y="1060" width="120" height="80" as="geometry" />
        </mxCell>
        <mxCell id="12c1S3n-bGrvphXizV_3-44" style="edgeStyle=none;rounded=0;orthogonalLoop=1;jettySize=auto;html=1;entryX=0.96;entryY=0.686;entryDx=0;entryDy=0;entryPerimeter=0;dashed=1;" edge="1" parent="1" source="12c1S3n-bGrvphXizV_3-48" target="12c1S3n-bGrvphXizV_3-12">
          <mxGeometry relative="1" as="geometry" />
        </mxCell>
        <mxCell id="12c1S3n-bGrvphXizV_3-45" value="&amp;lt;&amp;lt;extend&amp;gt;&amp;gt;" style="edgeLabel;html=1;align=center;verticalAlign=middle;resizable=0;points=[];" vertex="1" connectable="0" parent="12c1S3n-bGrvphXizV_3-44">
          <mxGeometry x="-0.1422" y="1" relative="1" as="geometry">
            <mxPoint as="offset" />
          </mxGeometry>
        </mxCell>
        <mxCell id="12c1S3n-bGrvphXizV_3-46" style="edgeStyle=none;rounded=0;orthogonalLoop=1;jettySize=auto;html=1;entryX=0;entryY=0.5;entryDx=0;entryDy=0;dashed=1;" edge="1" parent="1" source="12c1S3n-bGrvphXizV_3-48" target="12c1S3n-bGrvphXizV_3-52">
          <mxGeometry relative="1" as="geometry" />
        </mxCell>
        <mxCell id="12c1S3n-bGrvphXizV_3-47" value="&amp;lt;&amp;lt;include&amp;gt;&amp;gt;" style="edgeLabel;html=1;align=center;verticalAlign=middle;resizable=0;points=[];" vertex="1" connectable="0" parent="12c1S3n-bGrvphXizV_3-46">
          <mxGeometry x="-0.2168" relative="1" as="geometry">
            <mxPoint as="offset" />
          </mxGeometry>
        </mxCell>
        <mxCell id="12c1S3n-bGrvphXizV_3-48" value="주문 내역 조회" style="ellipse;whiteSpace=wrap;html=1;" vertex="1" parent="1">
          <mxGeometry x="930" y="520" width="120" height="80" as="geometry" />
        </mxCell>
        <mxCell id="12c1S3n-bGrvphXizV_3-49" style="edgeStyle=none;rounded=0;orthogonalLoop=1;jettySize=auto;html=1;entryX=1;entryY=1;entryDx=0;entryDy=0;dashed=1;" edge="1" parent="1" source="12c1S3n-bGrvphXizV_3-51" target="12c1S3n-bGrvphXizV_3-12">
          <mxGeometry relative="1" as="geometry" />
        </mxCell>
        <mxCell id="12c1S3n-bGrvphXizV_3-50" value="&amp;lt;&amp;lt;extend&amp;gt;&amp;gt;" style="edgeLabel;html=1;align=center;verticalAlign=middle;resizable=0;points=[];" vertex="1" connectable="0" parent="12c1S3n-bGrvphXizV_3-49">
          <mxGeometry x="-0.0682" y="1" relative="1" as="geometry">
            <mxPoint as="offset" />
          </mxGeometry>
        </mxCell>
        <mxCell id="12c1S3n-bGrvphXizV_3-51" value="내 리뷰 내역 조회" style="ellipse;whiteSpace=wrap;html=1;" vertex="1" parent="1">
          <mxGeometry x="920" y="670" width="120" height="80" as="geometry" />
        </mxCell>
        <mxCell id="12c1S3n-bGrvphXizV_3-52" value="리뷰 작성" style="ellipse;whiteSpace=wrap;html=1;" vertex="1" parent="1">
          <mxGeometry x="1160" y="560" width="120" height="80" as="geometry" />
        </mxCell>
        <mxCell id="12c1S3n-bGrvphXizV_3-53" style="edgeStyle=none;rounded=0;orthogonalLoop=1;jettySize=auto;html=1;entryX=0.978;entryY=0.361;entryDx=0;entryDy=0;entryPerimeter=0;dashed=1;" edge="1" parent="1" source="12c1S3n-bGrvphXizV_3-55" target="12c1S3n-bGrvphXizV_3-12">
          <mxGeometry relative="1" as="geometry" />
        </mxCell>
        <mxCell id="12c1S3n-bGrvphXizV_3-54" value="&amp;lt;&amp;lt;extend&amp;gt;&amp;gt;" style="edgeLabel;html=1;align=center;verticalAlign=middle;resizable=0;points=[];" vertex="1" connectable="0" parent="12c1S3n-bGrvphXizV_3-53">
          <mxGeometry x="-0.1823" y="1" relative="1" as="geometry">
            <mxPoint as="offset" />
          </mxGeometry>
        </mxCell>
        <mxCell id="12c1S3n-bGrvphXizV_3-55" value="비밀번호 변경" style="ellipse;whiteSpace=wrap;html=1;" vertex="1" parent="1">
          <mxGeometry x="930" y="330" width="120" height="80" as="geometry" />
        </mxCell>
        <mxCell id="12c1S3n-bGrvphXizV_3-56" style="edgeStyle=none;rounded=0;orthogonalLoop=1;jettySize=auto;html=1;entryX=0;entryY=0.5;entryDx=0;entryDy=0;dashed=1;" edge="1" parent="1" source="12c1S3n-bGrvphXizV_3-60" target="12c1S3n-bGrvphXizV_3-39">
          <mxGeometry relative="1" as="geometry" />
        </mxCell>
        <mxCell id="12c1S3n-bGrvphXizV_3-57" value="&amp;lt;&amp;lt;include&amp;gt;&amp;gt;" style="edgeLabel;html=1;align=center;verticalAlign=middle;resizable=0;points=[];" vertex="1" connectable="0" parent="12c1S3n-bGrvphXizV_3-56">
          <mxGeometry x="-0.1366" relative="1" as="geometry">
            <mxPoint as="offset" />
          </mxGeometry>
        </mxCell>
        <mxCell id="12c1S3n-bGrvphXizV_3-58" style="edgeStyle=none;rounded=0;orthogonalLoop=1;jettySize=auto;html=1;entryX=0.5;entryY=1;entryDx=0;entryDy=0;dashed=1;" edge="1" parent="1" source="12c1S3n-bGrvphXizV_3-60" target="12c1S3n-bGrvphXizV_3-21">
          <mxGeometry relative="1" as="geometry" />
        </mxCell>
        <mxCell id="12c1S3n-bGrvphXizV_3-59" value="&amp;lt;&amp;lt;include&amp;gt;&amp;gt;" style="edgeLabel;html=1;align=center;verticalAlign=middle;resizable=0;points=[];" vertex="1" connectable="0" parent="12c1S3n-bGrvphXizV_3-58">
          <mxGeometry x="-0.061" relative="1" as="geometry">
            <mxPoint as="offset" />
          </mxGeometry>
        </mxCell>
        <mxCell id="12c1S3n-bGrvphXizV_3-60" value="장바구니 담기" style="ellipse;whiteSpace=wrap;html=1;" vertex="1" parent="1">
          <mxGeometry x="700" y="980" width="120" height="80" as="geometry" />
        </mxCell>
        <mxCell id="12c1S3n-bGrvphXizV_3-61" style="edgeStyle=none;rounded=0;orthogonalLoop=1;jettySize=auto;html=1;entryX=1;entryY=1;entryDx=0;entryDy=0;dashed=1;" edge="1" parent="1" source="12c1S3n-bGrvphXizV_3-63" target="12c1S3n-bGrvphXizV_3-60">
          <mxGeometry relative="1" as="geometry" />
        </mxCell>
        <mxCell id="12c1S3n-bGrvphXizV_3-62" value="&amp;lt;&amp;lt;extend&amp;gt;&amp;gt;" style="edgeLabel;html=1;align=center;verticalAlign=middle;resizable=0;points=[];" vertex="1" connectable="0" parent="12c1S3n-bGrvphXizV_3-61">
          <mxGeometry x="-0.1111" relative="1" as="geometry">
            <mxPoint as="offset" />
          </mxGeometry>
        </mxCell>
        <mxCell id="12c1S3n-bGrvphXizV_3-63" value="장바구니 삭제" style="ellipse;whiteSpace=wrap;html=1;" vertex="1" parent="1">
          <mxGeometry x="880" y="1090" width="120" height="80" as="geometry" />
        </mxCell>
        <mxCell id="12c1S3n-bGrvphXizV_3-64" value="장바구니 조회" style="ellipse;whiteSpace=wrap;html=1;" vertex="1" parent="1">
          <mxGeometry x="540" y="380" width="120" height="80" as="geometry" />
        </mxCell>
        <mxCell id="12c1S3n-bGrvphXizV_3-65" style="edgeStyle=none;rounded=0;orthogonalLoop=1;jettySize=auto;html=1;entryX=1;entryY=1;entryDx=0;entryDy=0;dashed=1;" edge="1" parent="1" source="12c1S3n-bGrvphXizV_3-67" target="12c1S3n-bGrvphXizV_3-43">
          <mxGeometry relative="1" as="geometry" />
        </mxCell>
        <mxCell id="12c1S3n-bGrvphXizV_3-66" value="&amp;lt;&amp;lt;extend&amp;gt;&amp;gt;" style="edgeLabel;html=1;align=center;verticalAlign=middle;resizable=0;points=[];" vertex="1" connectable="0" parent="12c1S3n-bGrvphXizV_3-65">
          <mxGeometry x="-0.059" relative="1" as="geometry">
            <mxPoint as="offset" />
          </mxGeometry>
        </mxCell>
        <mxCell id="12c1S3n-bGrvphXizV_3-67" value="리뷰 추천" style="ellipse;whiteSpace=wrap;html=1;" vertex="1" parent="1">
          <mxGeometry x="690" y="1170" width="120" height="80" as="geometry" />
        </mxCell>
        <mxCell id="12c1S3n-bGrvphXizV_3-68" value="FAQ 조회" style="ellipse;whiteSpace=wrap;html=1;" vertex="1" parent="1">
          <mxGeometry x="510" y="1200" width="120" height="80" as="geometry" />
        </mxCell>
        <mxCell id="12c1S3n-bGrvphXizV_3-69" style="edgeStyle=none;rounded=0;orthogonalLoop=1;jettySize=auto;html=1;entryX=0;entryY=0.3333333333333333;entryDx=0;entryDy=0;entryPerimeter=0;" edge="1" parent="1" source="12c1S3n-bGrvphXizV_3-70" target="12c1S3n-bGrvphXizV_3-103">
          <mxGeometry relative="1" as="geometry" />
        </mxCell>
        <mxCell id="12c1S3n-bGrvphXizV_3-70" value="1:1 채팅 문의" style="ellipse;whiteSpace=wrap;html=1;" vertex="1" parent="1">
          <mxGeometry x="490" y="1410" width="120" height="80" as="geometry" />
        </mxCell>
        <mxCell id="12c1S3n-bGrvphXizV_3-71" value="대시보드" style="ellipse;whiteSpace=wrap;html=1;" vertex="1" parent="1">
          <mxGeometry x="1470" y="1020" width="120" height="80" as="geometry" />
        </mxCell>
        <mxCell id="12c1S3n-bGrvphXizV_3-72" style="rounded=0;orthogonalLoop=1;jettySize=auto;html=1;dashed=1;" edge="1" parent="1" source="12c1S3n-bGrvphXizV_3-74" target="12c1S3n-bGrvphXizV_3-71">
          <mxGeometry relative="1" as="geometry" />
        </mxCell>
        <mxCell id="12c1S3n-bGrvphXizV_3-73" value="&amp;lt;&amp;lt;extend&amp;gt;&amp;gt;" style="edgeLabel;html=1;align=center;verticalAlign=middle;resizable=0;points=[];" vertex="1" connectable="0" parent="12c1S3n-bGrvphXizV_3-72">
          <mxGeometry x="-0.1029" y="-1" relative="1" as="geometry">
            <mxPoint as="offset" />
          </mxGeometry>
        </mxCell>
        <mxCell id="12c1S3n-bGrvphXizV_3-74" value="매출액 조회" style="ellipse;whiteSpace=wrap;html=1;" vertex="1" parent="1">
          <mxGeometry x="1280" y="1200" width="120" height="80" as="geometry" />
        </mxCell>
        <mxCell id="12c1S3n-bGrvphXizV_3-75" style="rounded=0;orthogonalLoop=1;jettySize=auto;html=1;entryX=0.5;entryY=1;entryDx=0;entryDy=0;dashed=1;" edge="1" parent="1" source="12c1S3n-bGrvphXizV_3-77" target="12c1S3n-bGrvphXizV_3-71">
          <mxGeometry relative="1" as="geometry" />
        </mxCell>
        <mxCell id="12c1S3n-bGrvphXizV_3-76" value="&amp;lt;&amp;lt;extend&amp;gt;&amp;gt;" style="edgeLabel;html=1;align=center;verticalAlign=middle;resizable=0;points=[];" vertex="1" connectable="0" parent="12c1S3n-bGrvphXizV_3-75">
          <mxGeometry x="-0.15" y="1" relative="1" as="geometry">
            <mxPoint as="offset" />
          </mxGeometry>
        </mxCell>
        <mxCell id="12c1S3n-bGrvphXizV_3-77" value="판매량 조회" style="ellipse;whiteSpace=wrap;html=1;" vertex="1" parent="1">
          <mxGeometry x="1440" y="1190" width="120" height="80" as="geometry" />
        </mxCell>
        <mxCell id="12c1S3n-bGrvphXizV_3-78" style="rounded=0;orthogonalLoop=1;jettySize=auto;html=1;entryX=0.72;entryY=0.973;entryDx=0;entryDy=0;dashed=1;entryPerimeter=0;" edge="1" parent="1" source="12c1S3n-bGrvphXizV_3-80" target="12c1S3n-bGrvphXizV_3-71">
          <mxGeometry relative="1" as="geometry" />
        </mxCell>
        <mxCell id="12c1S3n-bGrvphXizV_3-79" value="&amp;lt;&amp;lt;extend&amp;gt;&amp;gt;" style="edgeLabel;html=1;align=center;verticalAlign=middle;resizable=0;points=[];" vertex="1" connectable="0" parent="12c1S3n-bGrvphXizV_3-78">
          <mxGeometry x="-0.1054" y="-1" relative="1" as="geometry">
            <mxPoint as="offset" />
          </mxGeometry>
        </mxCell>
        <mxCell id="12c1S3n-bGrvphXizV_3-80" value="매출 동향 조회" style="ellipse;whiteSpace=wrap;html=1;" vertex="1" parent="1">
          <mxGeometry x="1600" y="1180" width="120" height="80" as="geometry" />
        </mxCell>
        <mxCell id="12c1S3n-bGrvphXizV_3-81" value="주문 관리" style="ellipse;whiteSpace=wrap;html=1;" vertex="1" parent="1">
          <mxGeometry x="1520" y="880" width="120" height="80" as="geometry" />
        </mxCell>
        <mxCell id="12c1S3n-bGrvphXizV_3-82" style="edgeStyle=none;rounded=0;orthogonalLoop=1;jettySize=auto;html=1;entryX=0;entryY=0.5;entryDx=0;entryDy=0;dashed=1;" edge="1" parent="1" source="12c1S3n-bGrvphXizV_3-86" target="12c1S3n-bGrvphXizV_3-81">
          <mxGeometry relative="1" as="geometry" />
        </mxCell>
        <mxCell id="12c1S3n-bGrvphXizV_3-83" value="&amp;lt;&amp;lt;extend&amp;gt;&amp;gt;" style="edgeLabel;html=1;align=center;verticalAlign=middle;resizable=0;points=[];" vertex="1" connectable="0" parent="12c1S3n-bGrvphXizV_3-82">
          <mxGeometry x="-0.0689" relative="1" as="geometry">
            <mxPoint as="offset" />
          </mxGeometry>
        </mxCell>
        <mxCell id="12c1S3n-bGrvphXizV_3-84" style="edgeStyle=none;rounded=0;orthogonalLoop=1;jettySize=auto;html=1;entryX=1;entryY=0.3333333333333333;entryDx=0;entryDy=0;entryPerimeter=0;dashed=1;" edge="1" parent="1" source="12c1S3n-bGrvphXizV_3-86" target="12c1S3n-bGrvphXizV_3-41">
          <mxGeometry relative="1" as="geometry" />
        </mxCell>
        <mxCell id="12c1S3n-bGrvphXizV_3-85" value="include" style="edgeLabel;html=1;align=center;verticalAlign=middle;resizable=0;points=[];" vertex="1" connectable="0" parent="12c1S3n-bGrvphXizV_3-84">
          <mxGeometry x="-0.023" relative="1" as="geometry">
            <mxPoint as="offset" />
          </mxGeometry>
        </mxCell>
        <mxCell id="12c1S3n-bGrvphXizV_3-86" value="주문 조회" style="ellipse;whiteSpace=wrap;html=1;" vertex="1" parent="1">
          <mxGeometry x="1290" y="790" width="120" height="80" as="geometry" />
        </mxCell>
        <mxCell id="12c1S3n-bGrvphXizV_3-87" style="edgeStyle=none;rounded=0;orthogonalLoop=1;jettySize=auto;html=1;dashed=1;" edge="1" parent="1" source="12c1S3n-bGrvphXizV_3-89" target="12c1S3n-bGrvphXizV_3-86">
          <mxGeometry relative="1" as="geometry" />
        </mxCell>
        <mxCell id="12c1S3n-bGrvphXizV_3-88" value="&amp;lt;&amp;lt;extend&amp;gt;&amp;gt;" style="edgeLabel;html=1;align=center;verticalAlign=middle;resizable=0;points=[];" vertex="1" connectable="0" parent="12c1S3n-bGrvphXizV_3-87">
          <mxGeometry x="-0.1429" relative="1" as="geometry">
            <mxPoint as="offset" />
          </mxGeometry>
        </mxCell>
        <mxCell id="12c1S3n-bGrvphXizV_3-89" value="주문 취소" style="ellipse;whiteSpace=wrap;html=1;" vertex="1" parent="1">
          <mxGeometry x="1115" y="730" width="120" height="80" as="geometry" />
        </mxCell>
        <mxCell id="12c1S3n-bGrvphXizV_3-90" style="edgeStyle=none;rounded=0;orthogonalLoop=1;jettySize=auto;html=1;dashed=1;" edge="1" parent="1" source="12c1S3n-bGrvphXizV_3-92" target="12c1S3n-bGrvphXizV_3-81">
          <mxGeometry relative="1" as="geometry" />
        </mxCell>
        <mxCell id="12c1S3n-bGrvphXizV_3-91" value="&amp;lt;&amp;lt;extend&amp;gt;&amp;gt;" style="edgeLabel;html=1;align=center;verticalAlign=middle;resizable=0;points=[];" vertex="1" connectable="0" parent="12c1S3n-bGrvphXizV_3-90">
          <mxGeometry x="-0.0762" y="-1" relative="1" as="geometry">
            <mxPoint as="offset" />
          </mxGeometry>
        </mxCell>
        <mxCell id="12c1S3n-bGrvphXizV_3-92" value="주문 상태별 검색" style="ellipse;whiteSpace=wrap;html=1;" vertex="1" parent="1">
          <mxGeometry x="1290" y="940" width="120" height="80" as="geometry" />
        </mxCell>
        <mxCell id="12c1S3n-bGrvphXizV_3-93" value="배송 관리" style="ellipse;whiteSpace=wrap;html=1;" vertex="1" parent="1">
          <mxGeometry x="1625" y="180" width="120" height="80" as="geometry" />
        </mxCell>
        <mxCell id="12c1S3n-bGrvphXizV_3-94" style="edgeStyle=none;rounded=0;orthogonalLoop=1;jettySize=auto;html=1;entryX=0.028;entryY=0.648;entryDx=0;entryDy=0;entryPerimeter=0;dashed=1;" edge="1" parent="1" source="12c1S3n-bGrvphXizV_3-96" target="12c1S3n-bGrvphXizV_3-93">
          <mxGeometry relative="1" as="geometry" />
        </mxCell>
        <mxCell id="12c1S3n-bGrvphXizV_3-95" value="&amp;lt;&amp;lt;extend&amp;gt;&amp;gt;" style="edgeLabel;html=1;align=center;verticalAlign=middle;resizable=0;points=[];" vertex="1" connectable="0" parent="12c1S3n-bGrvphXizV_3-94">
          <mxGeometry x="-0.1738" y="1" relative="1" as="geometry">
            <mxPoint as="offset" />
          </mxGeometry>
        </mxCell>
        <mxCell id="12c1S3n-bGrvphXizV_3-96" value="배송 조회" style="ellipse;whiteSpace=wrap;html=1;" vertex="1" parent="1">
          <mxGeometry x="1400" y="190" width="120" height="80" as="geometry" />
        </mxCell>
        <mxCell id="12c1S3n-bGrvphXizV_3-97" style="edgeStyle=none;rounded=0;orthogonalLoop=1;jettySize=auto;html=1;dashed=1;" edge="1" parent="1" source="12c1S3n-bGrvphXizV_3-99" target="12c1S3n-bGrvphXizV_3-96">
          <mxGeometry relative="1" as="geometry">
            <mxPoint x="1385.000000000009" y="270.0000000000002" as="sourcePoint" />
          </mxGeometry>
        </mxCell>
        <mxCell id="12c1S3n-bGrvphXizV_3-98" value="&amp;lt;&amp;lt;extend&amp;gt;&amp;gt;" style="edgeLabel;html=1;align=center;verticalAlign=middle;resizable=0;points=[];" vertex="1" connectable="0" parent="12c1S3n-bGrvphXizV_3-97">
          <mxGeometry x="-0.2041" y="-1" relative="1" as="geometry">
            <mxPoint as="offset" />
          </mxGeometry>
        </mxCell>
        <mxCell id="12c1S3n-bGrvphXizV_3-99" value="배송 상태 변경" style="ellipse;whiteSpace=wrap;html=1;" vertex="1" parent="1">
          <mxGeometry x="1180" y="130" width="120" height="80" as="geometry" />
        </mxCell>
        <mxCell id="12c1S3n-bGrvphXizV_3-100" style="edgeStyle=none;rounded=0;orthogonalLoop=1;jettySize=auto;html=1;dashed=1;exitX=0.996;exitY=0.665;exitDx=0;exitDy=0;exitPerimeter=0;" edge="1" parent="1" source="12c1S3n-bGrvphXizV_3-102" target="12c1S3n-bGrvphXizV_3-93">
          <mxGeometry relative="1" as="geometry">
            <mxPoint x="1510" y="140" as="sourcePoint" />
          </mxGeometry>
        </mxCell>
        <mxCell id="12c1S3n-bGrvphXizV_3-101" value="&amp;lt;&amp;lt;extend&amp;gt;&amp;gt;" style="edgeLabel;html=1;align=center;verticalAlign=middle;resizable=0;points=[];" vertex="1" connectable="0" parent="12c1S3n-bGrvphXizV_3-100">
          <mxGeometry x="-0.1878" relative="1" as="geometry">
            <mxPoint as="offset" />
          </mxGeometry>
        </mxCell>
        <mxCell id="12c1S3n-bGrvphXizV_3-102" value="배송 캘린더" style="ellipse;whiteSpace=wrap;html=1;" vertex="1" parent="1">
          <mxGeometry x="1400" y="100" width="120" height="80" as="geometry" />
        </mxCell>
        <mxCell id="12c1S3n-bGrvphXizV_3-103" value="채널톡 API" style="shape=umlActor;verticalLabelPosition=bottom;verticalAlign=top;html=1;outlineConnect=0;" vertex="1" parent="1">
          <mxGeometry x="1000" y="1430" width="30" height="60" as="geometry" />
        </mxCell>
        <mxCell id="12c1S3n-bGrvphXizV_3-104" value="메뉴 관리" style="ellipse;whiteSpace=wrap;html=1;" vertex="1" parent="1">
          <mxGeometry x="1600" y="1360" width="120" height="80" as="geometry" />
        </mxCell>
        <mxCell id="12c1S3n-bGrvphXizV_3-105" value="옵션 관리" style="ellipse;whiteSpace=wrap;html=1;" vertex="1" parent="1">
          <mxGeometry x="1680" y="1670" width="120" height="80" as="geometry" />
        </mxCell>
        <mxCell id="12c1S3n-bGrvphXizV_3-106" style="rounded=0;orthogonalLoop=1;jettySize=auto;html=1;entryX=0.046;entryY=0.323;entryDx=0;entryDy=0;dashed=1;entryPerimeter=0;" edge="1" parent="1" source="12c1S3n-bGrvphXizV_3-108" target="12c1S3n-bGrvphXizV_3-104">
          <mxGeometry relative="1" as="geometry" />
        </mxCell>
        <mxCell id="12c1S3n-bGrvphXizV_3-107" value="&amp;lt;&amp;lt;extend&amp;gt;&amp;gt;" style="edgeLabel;html=1;align=center;verticalAlign=middle;resizable=0;points=[];" vertex="1" connectable="0" parent="12c1S3n-bGrvphXizV_3-106">
          <mxGeometry x="-0.1176" y="-1" relative="1" as="geometry">
            <mxPoint as="offset" />
          </mxGeometry>
        </mxCell>
        <mxCell id="12c1S3n-bGrvphXizV_3-108" value="메뉴 추가" style="ellipse;whiteSpace=wrap;html=1;" vertex="1" parent="1">
          <mxGeometry x="1310" y="1330" width="120" height="80" as="geometry" />
        </mxCell>
        <mxCell id="12c1S3n-bGrvphXizV_3-109" style="rounded=0;orthogonalLoop=1;jettySize=auto;html=1;dashed=1;" edge="1" parent="1" source="12c1S3n-bGrvphXizV_3-111" target="12c1S3n-bGrvphXizV_3-104">
          <mxGeometry relative="1" as="geometry" />
        </mxCell>
        <mxCell id="12c1S3n-bGrvphXizV_3-110" value="&amp;lt;&amp;lt;extend&amp;gt;&amp;gt;" style="edgeLabel;html=1;align=center;verticalAlign=middle;resizable=0;points=[];" vertex="1" connectable="0" parent="12c1S3n-bGrvphXizV_3-109">
          <mxGeometry x="0.171" relative="1" as="geometry">
            <mxPoint as="offset" />
          </mxGeometry>
        </mxCell>
        <mxCell id="12c1S3n-bGrvphXizV_3-111" value="메뉴 삭제" style="ellipse;whiteSpace=wrap;html=1;" vertex="1" parent="1">
          <mxGeometry x="1330" y="1530" width="120" height="80" as="geometry" />
        </mxCell>
        <mxCell id="12c1S3n-bGrvphXizV_3-112" style="edgeStyle=none;rounded=0;orthogonalLoop=1;jettySize=auto;html=1;dashed=1;" edge="1" parent="1" source="12c1S3n-bGrvphXizV_3-114" target="12c1S3n-bGrvphXizV_3-104">
          <mxGeometry relative="1" as="geometry" />
        </mxCell>
        <mxCell id="12c1S3n-bGrvphXizV_3-113" value="&amp;lt;&amp;lt;extend&amp;gt;&amp;gt;" style="edgeLabel;html=1;align=center;verticalAlign=middle;resizable=0;points=[];" vertex="1" connectable="0" parent="12c1S3n-bGrvphXizV_3-112">
          <mxGeometry x="-0.1029" relative="1" as="geometry">
            <mxPoint as="offset" />
          </mxGeometry>
        </mxCell>
        <mxCell id="12c1S3n-bGrvphXizV_3-114" value="메뉴 수정" style="ellipse;whiteSpace=wrap;html=1;" vertex="1" parent="1">
          <mxGeometry x="1320" y="1430" width="120" height="80" as="geometry" />
        </mxCell>
        <mxCell id="12c1S3n-bGrvphXizV_3-115" style="edgeStyle=none;rounded=0;orthogonalLoop=1;jettySize=auto;html=1;dashed=1;" edge="1" parent="1" source="12c1S3n-bGrvphXizV_3-117" target="12c1S3n-bGrvphXizV_3-105">
          <mxGeometry relative="1" as="geometry" />
        </mxCell>
        <mxCell id="12c1S3n-bGrvphXizV_3-116" value="&amp;lt;&amp;lt;extend&amp;gt;&amp;gt;" style="edgeLabel;html=1;align=center;verticalAlign=middle;resizable=0;points=[];" vertex="1" connectable="0" parent="12c1S3n-bGrvphXizV_3-115">
          <mxGeometry x="-0.1106" y="-1" relative="1" as="geometry">
            <mxPoint as="offset" />
          </mxGeometry>
        </mxCell>
        <mxCell id="12c1S3n-bGrvphXizV_3-117" value="옵션 추가" style="ellipse;whiteSpace=wrap;html=1;" vertex="1" parent="1">
          <mxGeometry x="1460" y="1580" width="120" height="80" as="geometry" />
        </mxCell>
        <mxCell id="12c1S3n-bGrvphXizV_3-118" style="edgeStyle=none;rounded=0;orthogonalLoop=1;jettySize=auto;html=1;entryX=0;entryY=0.5;entryDx=0;entryDy=0;dashed=1;" edge="1" parent="1" source="12c1S3n-bGrvphXizV_3-120" target="12c1S3n-bGrvphXizV_3-105">
          <mxGeometry relative="1" as="geometry" />
        </mxCell>
        <mxCell id="12c1S3n-bGrvphXizV_3-119" value="&amp;lt;&amp;lt;extend&amp;gt;&amp;gt;" style="edgeLabel;html=1;align=center;verticalAlign=middle;resizable=0;points=[];" vertex="1" connectable="0" parent="12c1S3n-bGrvphXizV_3-118">
          <mxGeometry x="-0.1511" relative="1" as="geometry">
            <mxPoint as="offset" />
          </mxGeometry>
        </mxCell>
        <mxCell id="12c1S3n-bGrvphXizV_3-120" value="옵션 수정" style="ellipse;whiteSpace=wrap;html=1;" vertex="1" parent="1">
          <mxGeometry x="1460" y="1680" width="120" height="80" as="geometry" />
        </mxCell>
        <mxCell id="12c1S3n-bGrvphXizV_3-121" style="edgeStyle=none;rounded=0;orthogonalLoop=1;jettySize=auto;html=1;entryX=0.058;entryY=0.781;entryDx=0;entryDy=0;entryPerimeter=0;dashed=1;" edge="1" parent="1" source="12c1S3n-bGrvphXizV_3-123" target="12c1S3n-bGrvphXizV_3-105">
          <mxGeometry relative="1" as="geometry" />
        </mxCell>
        <mxCell id="12c1S3n-bGrvphXizV_3-122" value="&amp;lt;&amp;lt;extend&amp;gt;&amp;gt;" style="edgeLabel;html=1;align=center;verticalAlign=middle;resizable=0;points=[];" vertex="1" connectable="0" parent="12c1S3n-bGrvphXizV_3-121">
          <mxGeometry x="-0.1154" y="-1" relative="1" as="geometry">
            <mxPoint as="offset" />
          </mxGeometry>
        </mxCell>
        <mxCell id="12c1S3n-bGrvphXizV_3-123" value="옵션 삭제" style="ellipse;whiteSpace=wrap;html=1;" vertex="1" parent="1">
          <mxGeometry x="1460" y="1780" width="120" height="80" as="geometry" />
        </mxCell>
        <mxCell id="12c1S3n-bGrvphXizV_3-124" value="회원 관리" style="ellipse;whiteSpace=wrap;html=1;" vertex="1" parent="1">
          <mxGeometry x="1440" y="420" width="120" height="80" as="geometry" />
        </mxCell>
        <mxCell id="12c1S3n-bGrvphXizV_3-125" style="edgeStyle=none;rounded=0;orthogonalLoop=1;jettySize=auto;html=1;entryX=0.067;entryY=0.746;entryDx=0;entryDy=0;entryPerimeter=0;dashed=1;" edge="1" parent="1" source="12c1S3n-bGrvphXizV_3-127" target="12c1S3n-bGrvphXizV_3-124">
          <mxGeometry relative="1" as="geometry" />
        </mxCell>
        <mxCell id="12c1S3n-bGrvphXizV_3-126" value="&amp;lt;&amp;lt;extend&amp;gt;&amp;gt;" style="edgeLabel;html=1;align=center;verticalAlign=middle;resizable=0;points=[];" vertex="1" connectable="0" parent="12c1S3n-bGrvphXizV_3-125">
          <mxGeometry x="-0.1856" y="-1" relative="1" as="geometry">
            <mxPoint as="offset" />
          </mxGeometry>
        </mxCell>
        <mxCell id="12c1S3n-bGrvphXizV_3-127" value="탈퇴 처리" style="ellipse;whiteSpace=wrap;html=1;" vertex="1" parent="1">
          <mxGeometry x="1220" y="420" width="120" height="80" as="geometry" />
        </mxCell>
        <mxCell id="12c1S3n-bGrvphXizV_3-128" style="edgeStyle=none;rounded=0;orthogonalLoop=1;jettySize=auto;html=1;entryX=0;entryY=0;entryDx=0;entryDy=0;dashed=1;" edge="1" parent="1" source="12c1S3n-bGrvphXizV_3-130" target="12c1S3n-bGrvphXizV_3-124">
          <mxGeometry relative="1" as="geometry" />
        </mxCell>
        <mxCell id="12c1S3n-bGrvphXizV_3-129" value="&amp;lt;&amp;lt;extend&amp;gt;&amp;gt;" style="edgeLabel;html=1;align=center;verticalAlign=middle;resizable=0;points=[];" vertex="1" connectable="0" parent="12c1S3n-bGrvphXizV_3-128">
          <mxGeometry x="-0.1625" relative="1" as="geometry">
            <mxPoint as="offset" />
          </mxGeometry>
        </mxCell>
        <mxCell id="12c1S3n-bGrvphXizV_3-130" value="회원 조회" style="ellipse;whiteSpace=wrap;html=1;" vertex="1" parent="1">
          <mxGeometry x="1250" y="310" width="120" height="80" as="geometry" />
        </mxCell>
      </root>
    </mxGraphModel>
  </diagram>
</mxfile>
